<svg xmlns="http://www.w3.org/2000/svg" xmlns:xlink="http://www.w3.org/1999/xlink" width="148.36999893188477" height="69.48999881744385" viewBox="0 0 148.36999893188477 69.48999881744385" fill="none"><g opacity="1"  transform="translate(0.0000013732910701946821 -1.1444092251622351e-7)  rotate(0)"><mask id="bg-mask-0" fill="white"><use transform="translate(0 0)  rotate(0)" xlink:href="#path_0"></use></mask><g mask="url(#bg-mask-0)" ><g opacity="1"  transform="translate(73.35999923706049 35.88000213623047)  rotate(0)"><g opacity="1"  transform="translate(0 0)  rotate(0)"><path id="路径 1" fill-rule="evenodd" style="fill:#C68B5B" opacity="1" d="M0 0.369999L0 3.55L2.3 3.55L2.3 2.71L1 2.71L1 0.369999L0 0.369999Z"></path><path id="路径 2" fill-rule="evenodd" style="fill:#C68B5B" opacity="1" d="M2.59892,1.92c0.11,-0.16 0.26,-0.29 0.45,-0.38c0.19,-0.09 0.41,-0.13 0.65,-0.13c0.24,0 0.46,0.05 0.65,0.13c0.19,0.09 0.34,0.21 0.45,0.38c0.11,0.17 0.16,0.36 0.16,0.59c0,0.22 -0.05,0.42 -0.16,0.58c-0.11,0.17 -0.26,0.29 -0.45,0.38c-0.19,0.09 -0.41,0.13 -0.65,0.13c-0.24,0 -0.46,-0.05 -0.65,-0.13c-0.19,-0.09 -0.34,-0.21 -0.45,-0.38c-0.11,-0.17 -0.16,-0.36 -0.16,-0.58c-0.01,-0.23 0.05,-0.43 0.16,-0.59zM3.52892,2.85c0.05,0.03 0.11,0.04 0.17,0.04c0.06,0 0.12,-0.02 0.17,-0.04c0.05,-0.03 0.09,-0.07 0.13,-0.13c0.03,-0.06 0.05,-0.13 0.05,-0.21c0,-0.08 -0.02,-0.16 -0.05,-0.21c-0.03,-0.06 -0.08,-0.1 -0.13,-0.13c-0.05,-0.03 -0.11,-0.05 -0.17,-0.05c-0.06,0 -0.12,0.02 -0.17,0.05c-0.05,0.03 -0.09,0.08 -0.13,0.13c-0.03,0.06 -0.05,0.13 -0.05,0.21c0,0.08 0.01,0.15 0.05,0.21c0.03,0.06 0.08,0.1 0.13,0.13z"></path><path id="路径 3" fill-rule="evenodd" style="fill:#C68B5B" opacity="1" d="M6.11001,2.99c0.02,0.03 0.05,0.05 0.08,0.06c0.03,0.02 0.06,0.02 0.1,0.02c0.06,0 0.11,-0.01 0.17,-0.04c0.06,-0.03 0.1,-0.07 0.13,-0.12c0.03,-0.06 0.05,-0.13 0.05,-0.22l0.07,0.27c0,0.13 -0.03,0.25 -0.1,0.35c-0.07,0.1 -0.16,0.17 -0.27,0.22c-0.11,0.05 -0.25,0.08 -0.39,0.08c-0.14,0 -0.26,-0.02 -0.38,-0.07c-0.11,-0.05 -0.21,-0.12 -0.28,-0.22c-0.07,-0.1 -0.11,-0.22 -0.11,-0.36c0,-0.2 0.07,-0.36 0.21,-0.47c0.14,-0.11 0.35,-0.17 0.61,-0.17c0.11,0 0.22,0.01 0.31,0.03c0.1,0.02 0.19,0.04 0.27,0.08c0.08,0.03 0.14,0.07 0.19,0.12v0.36c-0.05,-0.05 -0.12,-0.08 -0.21,-0.11c-0.09,-0.03 -0.17,-0.04 -0.27,-0.04c-0.06,0 -0.1,0.01 -0.14,0.02c-0.03,0.01 -0.06,0.03 -0.08,0.05c-0.02,0.02 -0.02,0.05 -0.02,0.09c0.03,0.01 0.04,0.04 0.06,0.07zM5.35001,1.62c0.14,-0.06 0.31,-0.11 0.49,-0.16c0.18,-0.05 0.38,-0.07 0.58,-0.07c0.2,0 0.38,0.03 0.54,0.08c0.16,0.05 0.29,0.13 0.38,0.24c0.09,0.11 0.14,0.23 0.14,0.38v1.46h-0.84v-1.23c0,-0.04 -0.01,-0.08 -0.02,-0.11c-0.01,-0.03 -0.03,-0.06 -0.06,-0.09c-0.03,-0.03 -0.06,-0.05 -0.11,-0.06c-0.05,-0.02 -0.1,-0.02 -0.16,-0.02c-0.08,0 -0.17,0.01 -0.27,0.03c-0.1,0.02 -0.18,0.04 -0.25,0.07c-0.07,0.03 -0.12,0.05 -0.15,0.06z"></path><path id="路径 4" fill-rule="evenodd" style="fill:#C68B5B" opacity="1" d="M7.99,1.9c0.09,-0.16 0.22,-0.28 0.37,-0.36c0.15,-0.08 0.3,-0.12 0.46,-0.12c0.17,0 0.33,0.05 0.47,0.13c0.14,0.09 0.25,0.21 0.33,0.38c0.08,0.16 0.12,0.36 0.12,0.58c0,0.22 -0.04,0.42 -0.12,0.58c-0.08,0.16 -0.19,0.29 -0.33,0.38c-0.14,0.09 -0.3,0.13 -0.47,0.13c-0.16,0 -0.31,-0.04 -0.46,-0.12c-0.15,-0.08 -0.27,-0.2 -0.37,-0.37c-0.09,-0.16 -0.14,-0.36 -0.14,-0.6c0,-0.25 0.04,-0.45 0.14,-0.61zM8.97,2.86c0.06,0.04 0.12,0.05 0.19,0.05c0.06,0 0.12,-0.02 0.18,-0.05c0.06,-0.03 0.11,-0.08 0.14,-0.14c0.04,-0.06 0.05,-0.13 0.05,-0.22c0,-0.09 -0.02,-0.16 -0.05,-0.22c-0.04,-0.06 -0.08,-0.11 -0.14,-0.14c-0.06,-0.03 -0.12,-0.05 -0.18,-0.05c-0.07,0 -0.13,0.02 -0.19,0.05c-0.06,0.04 -0.1,0.08 -0.14,0.14c-0.03,0.06 -0.05,0.13 -0.05,0.21c0,0.08 0.02,0.16 0.05,0.22c0.03,0.06 0.08,0.11 0.14,0.15zM10.42,0v3.55h-0.89v-3.55z"></path><path id="路径 5" fill-rule="evenodd" style="fill:#C68B5B" opacity="1" d="M10.94,0.4c0.09,-0.08 0.21,-0.12 0.35,-0.12c0.14,0 0.25,0.04 0.35,0.12c0.09,0.08 0.14,0.19 0.14,0.32c0,0.13 -0.04,0.24 -0.14,0.32c-0.09,0.08 -0.21,0.12 -0.35,0.12c-0.14,0 -0.25,-0.04 -0.35,-0.12c-0.09,-0.08 -0.14,-0.19 -0.14,-0.32c0,-0.13 0.05,-0.24 0.14,-0.32zM11.72,1.46v2.09h-0.85v-2.09z"></path><path id="路径 6" fill-rule="evenodd" style="fill:#C68B5B" opacity="1" d="M13.54 2.26999L13.54 3.53999L14.47 3.53999L14.47 2.17999C14.47 1.92999 14.41 1.73999 14.3 1.59999C14.19 1.46999 13.98 1.39999 13.7 1.39999C13.54 1.39999 13.41 1.43999 13.3 1.49999C13.2 1.56999 13.12 1.64999 13.06 1.75999L13.06 1.45999L12.17 1.45999L12.17 3.54999L13.06 3.54999L13.06 2.27999C13.06 2.20999 13.07 2.15999 13.09 2.10999C13.11 2.05999 13.14 2.02999 13.18 2.00999C13.22 1.98999 13.27 1.97999 13.32 1.97999C13.41 1.97999 13.47 2.00999 13.5 2.05999C13.52 2.10999 13.54 2.17999 13.54 2.26999Z"></path><path id="路径 7" fill-rule="evenodd" style="fill:#C68B5B" opacity="1" d="M14.9787,1.86c0.09,-0.15 0.22,-0.27 0.37,-0.34c0.15,-0.08 0.3,-0.11 0.46,-0.11c0.17,0 0.33,0.04 0.47,0.12c0.14,0.08 0.25,0.2 0.33,0.35c0.08,0.16 0.12,0.35 0.12,0.57c0,0.22 -0.04,0.41 -0.12,0.57c-0.08,0.16 -0.19,0.27 -0.33,0.36c-0.14,0.08 -0.3,0.12 -0.47,0.12c-0.16,0 -0.31,-0.04 -0.46,-0.11c-0.15,-0.08 -0.27,-0.19 -0.37,-0.35c-0.09,-0.16 -0.14,-0.35 -0.14,-0.59c-0.01,-0.23 0.04,-0.43 0.14,-0.59zM15.7287,3.71c0.01,0.08 0.03,0.13 0.07,0.17c0.03,0.04 0.08,0.06 0.13,0.08c0.05,0.02 0.11,0.02 0.17,0.02c0.09,0 0.17,-0.02 0.23,-0.06c0.06,-0.04 0.11,-0.09 0.14,-0.16c0.03,-0.07 0.05,-0.16 0.05,-0.26v-2.05h0.84v2.05c0,0.28 -0.05,0.51 -0.16,0.68c-0.11,0.17 -0.25,0.29 -0.44,0.37c-0.18,0.08 -0.39,0.11 -0.63,0.11c-0.3,0 -0.53,-0.04 -0.7,-0.12c-0.17,-0.08 -0.3,-0.19 -0.39,-0.34c-0.08,-0.14 -0.14,-0.31 -0.17,-0.5c0.01,0.01 0.86,0.01 0.86,0.01zM15.9587,2.79c0.06,0.03 0.12,0.04 0.19,0.04c0.06,0 0.12,-0.01 0.18,-0.04c0.06,-0.03 0.11,-0.06 0.14,-0.12c0.04,-0.05 0.05,-0.12 0.05,-0.21c0,-0.06 -0.01,-0.12 -0.03,-0.16c-0.02,-0.05 -0.05,-0.08 -0.09,-0.11c-0.04,-0.03 -0.08,-0.05 -0.12,-0.06c-0.05,-0.02 -0.09,-0.02 -0.13,-0.02c-0.07,0 -0.13,0.02 -0.19,0.04c-0.06,0.03 -0.1,0.07 -0.14,0.12c-0.03,0.05 -0.05,0.12 -0.05,0.2c0,0.07 0.02,0.13 0.05,0.19c0.03,0.05 0.08,0.09 0.14,0.13z"></path><path id="路径 8" fill-rule="evenodd" style="fill:#C68B5B" opacity="1" d="M17.81 3.17C17.81 3.31 17.86 3.44 17.96 3.54C18.06 3.65 18.19 3.7 18.35 3.7C18.51 3.7 18.64 3.64 18.74 3.54C18.84 3.44 18.89 3.31 18.89 3.17C18.89 3.03 18.84 2.9 18.74 2.8C18.64 2.69 18.51 2.64 18.35 2.64C18.19 2.64 18.06 2.7 17.96 2.8C17.86 2.9 17.81 3.03 17.81 3.17Z"></path><path id="路径 9" fill-rule="evenodd" style="fill:#C68B5B" opacity="1" d="M19.34 3.17C19.34 3.31 19.39 3.44 19.49 3.54C19.59 3.65 19.72 3.7 19.88 3.7C20.04 3.7 20.17 3.64 20.27 3.54C20.37 3.44 20.42 3.31 20.42 3.17C20.42 3.03 20.37 2.9 20.27 2.8C20.17 2.69 20.04 2.64 19.88 2.64C19.72 2.64 19.59 2.7 19.49 2.8C19.39 2.9 19.34 3.03 19.34 3.17Z"></path><path id="路径 10" fill-rule="evenodd" style="fill:#C68B5B" opacity="1" d="M20.87 3.17C20.87 3.31 20.92 3.44 21.02 3.54C21.12 3.65 21.25 3.7 21.41 3.7C21.57 3.7 21.7 3.64 21.8 3.54C21.9 3.44 21.95 3.31 21.95 3.17C21.95 3.03 21.9 2.9 21.8 2.8C21.7 2.69 21.57 2.64 21.41 2.64C21.25 2.64 21.12 2.7 21.02 2.8C20.92 2.9 20.87 3.03 20.87 3.17Z"></path></g></g><g opacity="1"  transform="translate(57.67999893188471 35.779999847412114)  rotate(0)"><g opacity="1"  transform="translate(0 0)  rotate(0)"><path id="路径 11" fill-rule="evenodd" style="fill:#C68B5B" opacity="1" d="M1.85 1.98L1.22 0.370003L0 0.370003L1.86 3.9L3.72 0.370003L2.5 0.370003L1.85 1.98Z"></path><path id="路径 12" fill-rule="evenodd" style="fill:#C68B5B" opacity="1" d="M4.01,0.41c0.1,-0.08 0.22,-0.13 0.36,-0.13c0.14,0 0.26,0.04 0.36,0.13c0.1,0.08 0.15,0.2 0.15,0.33c0,0.14 -0.05,0.25 -0.15,0.33c-0.1,0.08 -0.22,0.13 -0.36,0.13c-0.14,0 -0.26,-0.04 -0.36,-0.13c-0.1,-0.08 -0.15,-0.2 -0.15,-0.33c0,-0.14 0.05,-0.25 0.15,-0.33zM4.8,1.5v2.16h-0.88v-2.16z"></path><path id="路径 13" fill-rule="evenodd" style="fill:#C68B5B" opacity="1" d="M5.32999,1.96c0.1,-0.17 0.23,-0.29 0.38,-0.38c0.15,-0.08 0.31,-0.13 0.47,-0.13c0.18,0 0.34,0.04 0.49,0.14c0.15,0.1 0.26,0.22 0.34,0.39c0.08,0.17 0.13,0.37 0.13,0.6c0,0.23 -0.04,0.43 -0.13,0.6c-0.08,0.17 -0.2,0.3 -0.34,0.39c-0.14,0.09 -0.3,0.14 -0.49,0.14c-0.16,0 -0.32,-0.04 -0.47,-0.13c-0.15,-0.08 -0.28,-0.21 -0.38,-0.38c-0.1,-0.17 -0.15,-0.38 -0.15,-0.62c0,-0.25 0.05,-0.46 0.15,-0.62zM6.33999,2.95c0.06,0.03 0.12,0.06 0.19,0.06c0.06,0 0.12,-0.02 0.18,-0.05c0.06,-0.03 0.11,-0.08 0.15,-0.15c0.04,-0.06 0.06,-0.14 0.06,-0.23c0,-0.09 -0.02,-0.16 -0.06,-0.23c-0.04,-0.07 -0.09,-0.11 -0.15,-0.15c-0.06,-0.04 -0.12,-0.05 -0.18,-0.05c-0.07,0 -0.13,0.02 -0.19,0.06c-0.06,0.04 -0.11,0.09 -0.14,0.15c-0.03,0.06 -0.05,0.13 -0.05,0.22c0,0.08 0.02,0.15 0.05,0.22c0.03,0.06 0.08,0.12 0.14,0.15zM7.83999,0v3.67h-0.92v-3.67z"></path><path id="路径 14" fill-rule="evenodd" style="fill:#C68B5B" opacity="1" d="M8.83999,3.57c-0.2,-0.09 -0.36,-0.22 -0.47,-0.39c-0.11,-0.17 -0.16,-0.37 -0.16,-0.6c0,-0.24 0.05,-0.44 0.16,-0.61c0.11,-0.17 0.25,-0.3 0.45,-0.39c0.19,-0.09 0.43,-0.13 0.71,-0.13c0.27,0 0.50001,0.04 0.69001,0.12c0.19,0.08 0.33,0.21 0.42,0.37c0.09,0.16 0.14,0.36 0.14,0.59c0,0.04 0,0.08 0,0.12c0,0.04 0,0.08 -0.01,0.11h-1.64001c-0.01,-0.05 -0.01,-0.11 -0.01,-0.18c0,-0.1 0.01,-0.19 0.02,-0.26h0.66c0,0.02 0,0.03 0,0.05c0,0.02 -0.01,0.05 -0.02,0.08c-0.02,0.03 -0.03,0.06 -0.05,0.09l0.18,-0.22h-0.11c-0.01,-0.06 -0.02,-0.1 -0.04,-0.14c-0.02,-0.05 -0.06,-0.09 -0.11,-0.12c-0.05,-0.03 -0.1,-0.04 -0.16,-0.04c-0.08,0 -0.15,0.02 -0.21,0.06c-0.05,0.04 -0.09,0.1 -0.12,0.18c-0.01,0.02 -0.01,0.04 -0.02,0.06h-0.43v0.44h0.42c0.01,0.04 0.02,0.07 0.03,0.1c0.03,0.08 0.07,0.14 0.13,0.18c0.06,0.04 0.13,0.06 0.21,0.06c0.11,0 0.21,-0.02 0.28,-0.05c0.08,-0.04 0.13,-0.09 0.17,-0.16l0.84001,0.13c-0.12,0.23 -0.28,0.41 -0.48,0.52c-0.21,0.12 -0.46001,0.17 -0.76001,0.17c-0.26,0 -0.51,-0.04 -0.71,-0.14zM9.12999,2.76h-0.42v-0.44h0.43c-0.01,0.07 -0.02,0.16 -0.02,0.26c0,0.07 0,0.13 0.01,0.18zM9.13999,2.32c0.01,-0.02 0.01,-0.04 0.02,-0.06c0.03,-0.08 0.07,-0.14 0.12,-0.18c0.06,-0.04 0.13,-0.06 0.21,-0.06c0.06,0 0.11,0.01 0.16,0.04c0.05,0.03 0.09,0.07 0.11,0.12c0.02,0.04 0.03,0.08 0.04,0.14zM9.79999,2.37c0,0.02 -0.01,0.05 -0.02,0.08c-0.02,0.03 -0.03,0.06 -0.05,0.09l0.18,-0.22h-0.11c0,0.02 0,0.03 0,0.05z"></path><path id="路径 15" fill-rule="evenodd" style="fill:#C68B5B" opacity="1" d="M11.25,1.98c0.11,-0.17 0.27,-0.3 0.47,-0.39c0.2,-0.09 0.42,-0.14 0.67,-0.14c0.25,0 0.47,0.04 0.67,0.14c0.2,0.09 0.35,0.22 0.47,0.39c0.11,0.17 0.17,0.37 0.17,0.61c0,0.23 -0.06,0.43 -0.17,0.6c-0.11,0.17 -0.27,0.3 -0.47,0.39c-0.2,0.09 -0.42,0.14 -0.67,0.14c-0.25,0 -0.48,-0.04 -0.67,-0.14c-0.2,-0.09 -0.35,-0.22 -0.47,-0.39c-0.11,-0.17 -0.17,-0.37 -0.17,-0.6c0,-0.24 0.05,-0.45 0.17,-0.61zM12.21,2.93c0.06,0.03 0.11,0.04 0.18,0.04c0.06,0 0.12,-0.01 0.18,-0.04c0.05,-0.03 0.1,-0.07 0.13,-0.13c0.03,-0.06 0.05,-0.13 0.05,-0.22c0,-0.09 -0.02,-0.16 -0.05,-0.22c-0.03,-0.06 -0.08,-0.1 -0.14,-0.14c-0.06,-0.03 -0.11,-0.05 -0.18,-0.05c-0.06,0 -0.12,0.02 -0.18,0.05c-0.05,0.03 -0.1,0.08 -0.13,0.14c-0.03,0.06 -0.05,0.13 -0.05,0.22c0,0.09 0.02,0.16 0.06,0.22c0.03,0.06 0.08,0.1 0.13,0.13z"></path></g></g></g></g><defs><rect id="path_0" x="0" y="0" width="148.37" height="69.49" /></defs></svg>