<svg version="1.2" xmlns="http://www.w3.org/2000/svg" viewBox="0 0 149 38" width="149" height="38">
	<title>spinner0-svg</title>
	<defs>
		<clipPath clipPathUnits="userSpaceOnUse" id="cp1">
			<path d="m0-19h148.37v69.49h-148.37z"/>
		</clipPath>
	</defs>
	<style>
		.s0 { fill: #c68b5b } 
	</style>
	<g id="Layer">
		<g id="Clip-Path" clip-path="url(#cp1)">
			<g id="Layer">
				<g id="Layer">
					<g id="Layer">
						<path id="路径 1" fill-rule="evenodd" class="s0" d="m73.4 17.3v3.1h2.3v-0.8h-1.3v-2.3z"/>
						<path id="路径 2" fill-rule="evenodd" class="s0" d="m76 18.8q0.1-0.2 0.4-0.4 0.3-0.1 0.7-0.1 0.3 0 0.6 0.1 0.3 0.2 0.5 0.4 0.1 0.3 0.1 0.6 0 0.3-0.1 0.6-0.2 0.2-0.5 0.4-0.3 0.1-0.6 0.1-0.4 0-0.7-0.1-0.3-0.2-0.4-0.4-0.2-0.3-0.2-0.6 0-0.4 0.2-0.6zm0.9 0.9q0.1 0.1 0.2 0.1 0.1 0 0.1-0.1 0.1 0 0.2-0.1 0-0.1 0-0.2 0-0.1 0-0.2-0.1-0.1-0.2-0.1 0-0.1-0.1-0.1-0.1 0-0.2 0.1-0.1 0-0.1 0.1-0.1 0.1-0.1 0.2 0 0.1 0.1 0.2 0 0.1 0.1 0.1z"/>
						<path id="路径 3" fill-rule="evenodd" class="s0" d="m79.5 19.9q0 0 0.1 0 0 0.1 0.1 0.1 0 0 0.1-0.1 0.1 0 0.2-0.1 0-0.1 0-0.1 0 0-0.1 0-0.1-0.1-0.2-0.1-0.1 0-0.2 0.1 0 0-0.1 0 0 0 0 0.1 0 0 0.1 0.1zm0.5-0.2q0 0 0 0v0.4q0 0.1 0 0.1-0.1 0.1-0.3 0.2-0.2 0.1-0.4 0.1-0.2 0-0.4-0.1-0.1-0.1-0.2-0.2-0.2-0.1-0.2-0.4 0-0.3 0.3-0.4 0.2-0.2 0.6-0.2 0.1 0 0.3 0 0.1 0.1 0.2 0.1 0.1 0 0.1 0v0.3q0 0 0 0.1zm0 0v-0.1 0.1q0 0 0 0zm0.1 0.1q0 0.2-0.1 0.3v0.3h0.8v-1.4q0-0.2-0.1-0.4-0.1-0.2-0.4-0.2-0.2-0.1-0.5-0.1-0.3 0-0.6 0-0.3 0.1-0.5 0.2l0.3 0.6q0 0 0.1-0.1 0.1 0 0.3 0 0.1-0.1 0.3-0.1 0 0 0.1 0 0.1 0.1 0.1 0.1 0.1 0 0.1 0.1 0 0 0 0.1v0.1q0.1 0.1 0.1 0.1v0.4q0 0-0.1-0.1z"/>
						<path id="路径 4" fill-rule="evenodd" class="s0" d="m81.4 18.8q0.1-0.3 0.3-0.4 0.2-0.1 0.5-0.1 0.2 0 0.5 0.1 0.1 0.1 0.2 0.3v1.4q-0.1 0.2-0.2 0.3-0.3 0.1-0.5 0.1-0.3 0-0.5-0.1-0.2-0.2-0.3-0.4-0.2-0.2-0.2-0.6 0-0.4 0.2-0.6zm1.6 0q0.1 0.3 0.1 0.6 0 0.3-0.1 0.6-0.1 0.1-0.1 0.1v0.3h0.9v-3.5h-0.9v1.8q0 0 0.1 0.1zm-0.7 0.9q0.1 0.1 0.2 0.1 0.1 0 0.2-0.1 0.1 0 0.1-0.1 0.1-0.1 0.1-0.2 0-0.2-0.1-0.2 0-0.1-0.1-0.2-0.1 0-0.2 0-0.1 0-0.2 0-0.1 0.1-0.1 0.2-0.1 0.1-0.1 0.2 0 0.1 0.1 0.2 0 0.1 0.1 0.1z"/>
						<path id="路径 5" fill-rule="evenodd" class="s0" d="m84.2 17.6q0 0.2 0.1 0.3 0.1 0.1 0.4 0.1 0.2 0 0.3-0.1 0.1-0.1 0.1-0.3 0-0.2-0.1-0.3-0.1-0.1-0.3-0.1-0.3 0-0.4 0.1-0.1 0.1-0.1 0.3zm0 0.7v2.1h0.9v-2.1z"/>
						<path id="路径 6" fill-rule="evenodd" class="s0" d="m86.9 19.1v1.3h0.9v-1.3q0-0.4-0.1-0.6-0.2-0.2-0.6-0.2-0.3 0-0.4 0.1-0.2 0.1-0.3 0.2v-0.3h-0.9v2.1h0.9v-1.2q0-0.1 0.1-0.2 0-0.1 0-0.1 0.1 0 0.2 0 0.1 0 0.2 0 0 0.1 0 0.2z"/>
						<path id="路径 7" fill-rule="evenodd" class="s0" d="m88.3 18.7q0.2-0.2 0.4-0.3 0.2-0.1 0.5-0.1 0.2 0 0.4 0.1 0.2 0.1 0.3 0.2v1.4q-0.1 0.2-0.3 0.3-0.2 0.1-0.4 0.1-0.3 0-0.5-0.1-0.2-0.1-0.4-0.4-0.1-0.2-0.1-0.6 0-0.3 0.1-0.6zm1.6-0.1v-0.3h0.8v2.1q0 0.4-0.1 0.7-0.2 0.2-0.5 0.3-0.3 0.1-0.6 0.1-0.5 0-0.7-0.1-0.3-0.1-0.4-0.3-0.1-0.2-0.2-0.5c0 0 0.9 0 0.9 0q0 0.1 0.1 0.2 0 0 0.1 0 0.1 0.1 0.2 0.1 0.1 0 0.2-0.1 0.1-0.1 0.1-0.2 0.1-0.1 0.1-0.2v-0.4q0 0 0.1-0.1 0.1-0.2 0.1-0.6 0-0.3-0.1-0.5-0.1-0.1-0.1-0.2zm-0.6 1.1q0.1 0 0.2 0 0.1 0 0.2 0 0.1-0.1 0.1-0.1 0.1-0.1 0.1-0.3 0-0.1-0.1-0.1 0-0.1 0-0.1-0.1-0.1-0.2-0.1 0 0-0.1 0-0.1 0-0.2 0-0.1 0.1-0.1 0.2-0.1 0-0.1 0.2 0 0.1 0.1 0.1 0 0.1 0.1 0.2z"/>
						<path id="路径 8" fill-rule="evenodd" class="s0" d="m91.2 20.1q0 0.2 0.1 0.3 0.2 0.2 0.4 0.2 0.3 0 0.4-0.2 0.2-0.1 0.2-0.3 0-0.3-0.2-0.4-0.1-0.2-0.4-0.2-0.2 0-0.4 0.2-0.1 0.1-0.1 0.4z"/>
						<path id="路径 9" fill-rule="evenodd" class="s0" d="m92.7 20.1q0 0.2 0.2 0.3 0.1 0.2 0.3 0.2 0.3 0 0.4-0.2 0.2-0.1 0.2-0.3 0-0.3-0.2-0.4-0.1-0.2-0.4-0.2-0.2 0-0.3 0.2-0.2 0.1-0.2 0.4z"/>
						<path id="路径 10" fill-rule="evenodd" class="s0" d="m94.2 20.1q0 0.2 0.2 0.3 0.1 0.2 0.4 0.2 0.2 0 0.4-0.2 0.1-0.1 0.1-0.3 0-0.3-0.1-0.4-0.2-0.2-0.4-0.2-0.3 0-0.4 0.2-0.2 0.1-0.2 0.4z"/>
					</g>
				</g>
				<g id="Layer">
					<g id="Layer">
						<path id="路径 11" fill-rule="evenodd" class="s0" d="m59.5 18.8l-0.6-1.6h-1.2l1.8 3.5 1.9-3.5h-1.2z"/>
						<path id="路径 12" fill-rule="evenodd" class="s0" d="m61.5 17.5q0 0.2 0.2 0.3 0.1 0.2 0.4 0.2 0.2 0 0.3-0.2 0.2-0.1 0.2-0.3 0-0.2-0.2-0.3-0.1-0.1-0.3-0.1-0.3 0-0.4 0.1-0.2 0.1-0.2 0.3zm0.1 0.8v2.1h0.9v-2.1z"/>
						<path id="路径 13" fill-rule="evenodd" class="s0" d="m63 18.7q0.2-0.2 0.4-0.3 0.2-0.2 0.5-0.2 0.2 0 0.4 0.2 0.2 0.1 0.3 0.2v1.5q-0.1 0.2-0.3 0.2-0.2 0.2-0.4 0.2-0.3 0-0.5-0.1-0.2-0.2-0.4-0.4-0.1-0.3-0.1-0.6 0-0.4 0.1-0.7zm1.7 0.1q0.1 0.2 0.1 0.6 0 0.3-0.1 0.6 0 0-0.1 0.1v0.3h0.9v-3.6h-0.9v1.8q0.1 0.1 0.1 0.2zm-0.7 0.9q0.1 0.1 0.2 0.1 0.1 0 0.2-0.1 0.1 0 0.1-0.1 0.1-0.1 0.1-0.2 0-0.2-0.1-0.3 0-0.1-0.1-0.1-0.1-0.1-0.2-0.1-0.1 0-0.2 0.1-0.1 0-0.1 0.1-0.1 0.1-0.1 0.3 0 0.1 0.1 0.2 0 0.1 0.1 0.1z"/>
						<path id="路径 14" fill-rule="evenodd" class="s0" d="m66.5 20.3q-0.3-0.1-0.5-0.3-0.1-0.3-0.1-0.6 0-0.4 0.1-0.7 0.2-0.2 0.5-0.3 0.3-0.2 0.7-0.2 0.4 0 0.7 0.1 0.3 0.2 0.4 0.4 0.2 0.3 0.2 0.6 0 0.1 0 0.1 0 0.1 0 0.1h-1.7q0 0.1 0 0.1 0.1 0.2 0.2 0.2 0.1 0.1 0.2 0.1 0.1 0 0.3-0.1 0.1 0 0.1-0.1l0.9 0.1q-0.2 0.3-0.5 0.5-0.3 0.2-0.8 0.2-0.4 0-0.7-0.2zm1-1.2q0 0.1 0 0.1-0.1 0.1-0.1 0.1l0.2-0.2h-0.1q0 0 0 0z"/>
						<path id="路径 15" fill-rule="evenodd" class="s0" d="m68.9 18.8q0.2-0.3 0.5-0.4 0.3-0.2 0.7-0.2 0.3 0 0.6 0.2 0.3 0.1 0.5 0.4 0.2 0.2 0.2 0.6 0 0.3-0.2 0.6-0.2 0.2-0.5 0.4-0.3 0.1-0.6 0.1-0.4 0-0.7-0.1-0.3-0.2-0.5-0.4-0.1-0.3-0.1-0.6 0-0.4 0.1-0.6zm1 0.9q0.1 0.1 0.2 0 0.1 0.1 0.2 0 0 0 0.1-0.1 0-0.1 0-0.2 0-0.2 0-0.3-0.1 0-0.2-0.1 0 0-0.1-0.1-0.1 0.1-0.2 0.1-0.1 0-0.1 0.1-0.1 0.1-0.1 0.3 0 0.1 0.1 0.2 0 0.1 0.1 0.1z"/>
					</g>
				</g>
			</g>
		</g>
	</g>
</svg>